<?xml version="1.0" encoding="iso-8859-1"?>
<!-- Generator: Adobe Illustrator 18.0.0, SVG Export Plug-In . SVG Version: 6.00 Build 0)  -->
<!DOCTYPE svg PUBLIC "-//W3C//DTD SVG 1.1//EN" "http://www.w3.org/Graphics/SVG/1.1/DTD/svg11.dtd">
<svg version="1.1" id="Capa_1" xmlns="http://www.w3.org/2000/svg" xmlns:xlink="http://www.w3.org/1999/xlink" x="0px" y="0px"
	 viewBox="0 0 371.117 371.117" style="enable-background:new 0 0 371.117 371.117;" xml:space="preserve">
<path d="M316.33,64.556c-34.981-27.607-81.424-42.81-130.771-42.81c-49.348,0-95.79,15.204-130.771,42.81
	C19.457,92.438,0,129.614,0,169.238c0,23.835,7.308,47.508,21.133,68.46c12.759,19.334,31.07,36.42,53.088,49.564
	c-1.016,7.116-6.487,27.941-35.888,52.759c-1.513,1.278-2.13,3.328-1.572,5.229c0.558,1.9,2.185,3.292,4.147,3.55
	c0.179,0.023,4.455,0.572,12.053,0.572c21.664,0,65.939-4.302,120.063-32.973c4.177,0.221,8.387,0.333,12.534,0.333
	c49.348,0,95.79-15.204,130.771-42.811c35.33-27.882,54.787-65.059,54.787-104.683C371.117,129.614,351.66,92.438,316.33,64.556z
	 M253.515,217.07l-18.842,18.842c-0.976,0.976-2.256,1.464-3.535,1.464c-1.28,0-2.56-0.488-3.535-1.464l-42.044-42.044
	l-42.044,42.044c-1.951,1.952-5.119,1.952-7.07,0l-18.842-18.842c-1.953-1.953-1.953-5.119,0-7.071l42.043-42.044l-42.041-42.041
	c-1.953-1.953-1.953-5.119,0-7.071l18.842-18.842c1.951-1.952,5.119-1.952,7.07,0l42.042,42.041l42.042-42.041
	c1.951-1.952,5.119-1.952,7.07,0l18.842,18.842c1.954,1.953,1.954,5.119,0,7.071l-42.041,42.041l42.043,42.044
	C255.468,211.951,255.468,215.117,253.515,217.07z"/>
<g>
</g>
<g>
</g>
<g>
</g>
<g>
</g>
<g>
</g>
<g>
</g>
<g>
</g>
<g>
</g>
<g>
</g>
<g>
</g>
<g>
</g>
<g>
</g>
<g>
</g>
<g>
</g>
<g>
</g>
</svg>
